<svg width="118" height="52" viewBox="0 0 118 52" fill="none" xmlns="http://www.w3.org/2000/svg">
<path fill-rule="evenodd" clip-rule="evenodd" d="M41.7658 14.6801C41.5451 16.1598 42.0296 17.5808 42.9712 18.6186C44.1767 17.8853 45.0558 16.6579 45.2764 15.1783C45.497 13.6986 45.0126 12.2777 44.071 11.2399C42.8654 11.9732 41.9863 13.2006 41.7658 14.6801ZM45.5557 19.6346C45.3351 21.1143 45.8195 22.5352 46.7611 23.573C47.9667 22.8397 48.8459 21.6122 49.0665 20.1327C49.2871 18.653 48.8027 17.2321 47.8611 16.1943C46.6555 16.9276 45.7763 18.1551 45.5557 19.6346ZM49.2577 24.4741C49.0371 25.9538 49.5216 27.3747 50.4632 28.4125C51.6688 27.6792 52.548 26.4517 52.7686 24.9721C52.9892 23.4924 52.5048 22.0715 51.5632 21.0337C50.3575 21.767 49.4783 22.9945 49.2577 24.4741ZM52.4752 28.6796C52.2546 30.1593 52.739 31.5802 53.6806 32.618C54.8862 31.8847 55.7654 30.6572 55.986 29.1776C56.2066 27.698 55.7222 26.2771 54.7806 25.2392C53.575 25.9725 52.6958 27.2 52.4752 28.6796ZM49.7991 30.6262C48.2818 30.411 46.8247 30.8836 45.7606 31.8022C46.5125 32.9778 47.771 33.8352 49.2879 34.0503C50.8052 34.2655 52.2623 33.7929 53.3265 32.8743C52.5745 31.6986 51.3161 30.8413 49.7991 30.6262ZM42.5434 27.5963C43.6075 26.6777 45.0646 26.2052 46.582 26.4203C48.0989 26.6355 49.3574 27.4928 50.1093 28.6685C49.0451 29.5871 47.5881 30.0597 46.0707 29.8445C44.5538 29.6294 43.2953 28.772 42.5434 27.5963ZM38.8415 22.7573C39.9057 21.8387 41.3627 21.3662 42.8801 21.5813C44.397 21.7965 45.6554 22.6538 46.4073 23.8294C45.3432 24.748 43.8861 25.2205 42.3688 25.0053C40.8519 24.7902 39.5935 23.9329 38.8415 22.7573ZM35.0513 17.8032C36.1155 16.8843 37.5728 16.4114 39.0905 16.6267C40.607 16.8417 41.8653 17.6987 42.6173 18.874C41.553 19.7928 40.0957 20.2656 38.5782 20.0505C37.0614 19.8356 35.8031 18.9786 35.0513 17.8032Z" fill="#9B51E0"/>
<path fill-rule="evenodd" clip-rule="evenodd" d="M77.3074 14.68C77.528 16.1598 77.0435 17.5807 76.1018 18.6186C74.8962 17.8852 74.017 16.6578 73.7964 15.1782C73.5758 13.6984 74.0603 12.2775 75.002 11.2396C76.2076 11.973 77.0868 13.2004 77.3074 14.68ZM73.5172 19.6346C73.7378 21.1143 73.2533 22.5352 72.3117 23.5731C71.1061 22.8397 70.2269 21.6123 70.0063 20.1327C69.7857 18.653 70.2701 17.2321 71.2117 16.1942C72.4174 16.9275 73.2966 18.155 73.5172 19.6346ZM69.8151 24.4738C70.0357 25.9535 69.5512 27.3744 68.6095 28.4123C67.404 27.679 66.5248 26.4515 66.3042 24.9719C66.0836 23.4922 66.568 22.0713 67.5097 21.0334C68.7153 21.7668 69.5945 22.9942 69.8151 24.4738ZM66.5977 28.6795C66.8183 30.1591 66.3339 31.58 65.3923 32.6179C64.1867 31.8845 63.3076 30.6571 63.087 29.1775C62.8664 27.6979 63.3508 26.277 64.2924 25.2391C65.4979 25.9725 66.3771 27.1999 66.5977 28.6795ZM69.2736 30.6261C70.791 30.4109 72.248 30.8835 73.3122 31.8021C72.5603 32.9777 71.3018 33.8351 69.7849 34.0502C68.2675 34.2654 66.8105 33.7928 65.7463 32.8742C66.4982 31.6986 67.7567 30.8412 69.2736 30.6261ZM76.5295 27.5965C75.4654 26.6779 74.0083 26.2053 72.4909 26.4205C70.974 26.6356 69.7155 27.493 68.9636 28.6686C70.0278 29.5872 71.4848 30.0598 73.0022 29.8446C74.5191 29.6295 75.7776 28.7722 76.5295 27.5965ZM80.2315 22.7572C79.1673 21.8387 77.7103 21.3661 76.193 21.5813C74.6761 21.7964 73.4176 22.6537 72.6657 23.8293C73.7299 24.7479 75.1869 25.2204 76.7042 25.0053C78.2211 24.7901 79.4795 23.9328 80.2315 22.7572ZM84.0215 17.8031C82.9573 16.8842 81.5 16.4115 79.9824 16.6267C78.4658 16.8418 77.2075 17.6988 76.4556 18.8741C77.5199 19.7928 78.9771 20.2656 80.4945 20.0505C82.0113 19.8356 83.2696 18.9785 84.0215 17.8031Z" fill="#9B51E0"/>
<path d="M59.0369 51C57.7044 38.2436 42.1476 10.8422 24.5587 3.28773C2.57259 -6.15532 -3.42361 16.2098 4.07165 23.6648C11.5669 31.1199 24.059 25.6528 19.5618 14.7188" stroke="#9B51E0"/>
<path d="M58.9634 51C60.2959 38.2436 75.8527 10.8422 93.4416 3.28773C115.428 -6.15533 121.424 16.2098 113.929 23.6648C106.433 31.1199 93.9412 25.6528 98.4384 14.7188" stroke="#9B51E0"/>
</svg>
